<svg xmlns="http://www.w3.org/2000/svg" width="512" height="512" fill="none"><style>@media (prefers-color-scheme:light){.path{fill:#010104}}</style><path fill="url(#a)" d="M324.215 256c-.003 16.431-5.024 32.505-14.448 46.255-9.425 13.749-22.844 24.578-38.616 31.16v142.086h-70.754V333.376c-15.771-6.572-29.191-17.392-38.616-31.136s-14.445-29.814-14.445-46.24c0-16.427 5.02-32.497 14.445-46.241 9.425-13.743 22.845-24.564 38.616-31.136V36.498h70.754v142.086c15.775 6.578 29.198 17.405 38.623 31.156 9.426 13.75 14.444 29.827 14.441 46.26Z"/><path fill="url(#b)" d="M451.226 33.5v101.308l-73.895 70.538-35.363-33.773-22.774 21.74a104.272 104.272 0 0 0-17.702-16.897L451.226 33.5Z"/><path fill="url(#c)" d="m377.329 306.655 73.895 70.538v101.308L301.508 335.585a104.29 104.29 0 0 0 17.69-16.88l22.768 21.723 35.363-33.773Z"/><path fill="#EFF0F3" class="path" d="M129.676 256.001c-.044 22.746 7.979 44.837 22.763 62.676l-93.517 89.286V306.655l35.38-33.767v-33.773l-35.38-33.767V104.04l93.517 89.269c-14.789 17.843-22.813 39.94-22.763 62.692Z"/><defs><linearGradient id="a" x1="320.899" x2="136.191" y1="36.498" y2="41.238" gradientUnits="userSpaceOnUse"><stop stop-color="#2DD282"/><stop offset="1" stop-color="#90F4E8"/></linearGradient><linearGradient id="b" x1="448.418" x2="292.435" y1="33.5" y2="42.157" gradientUnits="userSpaceOnUse"><stop stop-color="#2DD282"/><stop offset="1" stop-color="#90F4E8"/></linearGradient><linearGradient id="c" x1="448.417" x2="292.452" y1="306.655" y2="315.31" gradientUnits="userSpaceOnUse"><stop stop-color="#2DD282"/><stop offset="1" stop-color="#90F4E8"/></linearGradient></defs></svg>
